{"asset":{"version":"2.0","generator":"Blockbench 4.11.1 glTF exporter"},"scenes":[{"nodes":[2],"name":"blockbench_export"}],"scene":0,"nodes":[{"translation":[0,0.1282330239323184,0],"name":"cylinder","mesh":0},{"rotation":[0.7071067811865475,0,0,0.7071067811865476],"translation":[0.057499999999999996,0.13092376514703774,-0.6875],"name":"model","children":[0]},{"children":[1]}],"bufferViews":[{"buffer":0,"byteOffset":0,"byteLength":6624,"target":34962,"byteStride":12},{"buffer":0,"byteOffset":6624,"byteLength":6624,"target":34962,"byteStride":12},{"buffer":0,"byteOffset":13248,"byteLength":4416,"target":34962,"byteStride":8},{"buffer":0,"byteOffset":17664,"byteLength":1584,"target":34963}],"buffers":[{"byteLength":19248,"uri":"data:application/octet-stream;base64,"}],"accessors":[{"bufferView":0,"componentType":5126,"count":552,"max":[0.14800000190734863,0.6020585298538208,0.12025000154972076],"min":[-0.14800000190734863,-0.9843164682388306,-0.12025000154972076],"type":"VEC3"},{"bufferView":1,"componentType":5126,"count":552,"max":[1,1,1],"min":[-1,-1,-1],"type":"VEC3"},{"bufferView":2,"componentType":5126,"count":552,"max":[0.5600617527961731,0.6362793445587158],"min":[0.0037101777270436287,0],"type":"VEC2"},{"bufferView":3,"componentType":5123,"count":792,"max":[551],"min":[0],"type":"SCALAR"}],"materials":[{"pbrMetallicRoughness":{"metallicFactor":0,"roughnessFactor":1,"baseColorTexture":{"index":0}},"alphaMode":"MASK","alphaCutoff":0.05,"doubleSided":true}],"textures":[{"sampler":0,"source":0,"name":"baguette.png"}],"samplers":[{"magFilter":9728,"minFilter":9728,"wrapS":33071,"wrapT":33071}],"images":[{"mimeType":"image/png","uri":"data:image/png;base64,"}],"meshes":[{"primitives":[{"mode":4,"attributes":{"POSITION":0,"NORMAL":1,"TEXCOORD_0":2},"indices":3,"material":0}]}]}